<svg width="16" height="16" viewBox="0 0 16 16" fill="none" xmlns="http://www.w3.org/2000/svg">
<path fill-rule="evenodd" clip-rule="evenodd" d="M11.7959 4.71969C12.0375 4.92691 12.0688 5.29486 11.8659 5.54155L7.06587 11.3749C6.95949 11.5042 6.80346 11.58 6.63808 11.5829C6.47271 11.5858 6.31423 11.5154 6.20359 11.3899L4.14645 9.05657C3.93533 8.81711 3.95435 8.44828 4.18892 8.23276C4.4235 8.01724 4.78481 8.03665 4.99593 8.27612L6.61346 10.1108L10.9908 4.79116C11.1938 4.54448 11.5542 4.51248 11.7959 4.71969Z" fill="#252525"/>
<path fill-rule="evenodd" clip-rule="evenodd" d="M2.46154 1.23077C1.7818 1.23077 1.23077 1.7818 1.23077 2.46154V13.5385C1.23077 14.2182 1.7818 14.7692 2.46154 14.7692H13.5385C14.2182 14.7692 14.7692 14.2182 14.7692 13.5385V2.46154C14.7692 1.7818 14.2182 1.23077 13.5385 1.23077H2.46154ZM0 2.46154C0 1.10207 1.10207 0 2.46154 0H13.5385C14.8979 0 16 1.10207 16 2.46154V13.5385C16 14.8979 14.8979 16 13.5385 16H2.46154C1.10207 16 0 14.8979 0 13.5385V2.46154Z" fill="#252525"/>
</svg>
