<svg width="59" height="87" viewBox="0 0 59 87" fill="none" xmlns="http://www.w3.org/2000/svg">
<path d="M54.8162 0H4.18385C3.07322 0 2.00807 0.522406 1.22274 1.45231C0.437403 2.38222 -0.00378418 3.64346 -0.00378418 4.95855V21.6869C-0.00378418 23.002 0.437403 24.2632 1.22274 25.1931C2.00807 26.123 3.07322 26.6454 4.18385 26.6454H34.1064L28.5559 33.2178C28.3316 33.4825 28.1538 33.7973 28.0329 34.144C27.912 34.4906 27.8503 34.8622 27.8516 35.2372C27.85 35.9972 28.1034 36.7268 28.5559 37.2657L33.9694 43.6713C34.0731 43.7932 34.1554 43.9382 34.2115 44.098C34.2677 44.2578 34.2966 44.4291 34.2966 44.6021C34.2966 44.7752 34.2677 44.9465 34.2115 45.1063C34.1554 45.266 34.0731 45.4111 33.9694 45.533L28.5559 51.9476C28.1021 52.4859 27.8473 53.2154 27.8473 53.9761C27.8473 54.7367 28.1021 55.4662 28.5559 56.0046L33.9694 62.4146C34.0732 62.5369 34.1556 62.6823 34.2118 62.8424C34.268 63.0026 34.2969 63.1743 34.2969 63.3477C34.2969 63.5211 34.268 63.6928 34.2118 63.853C34.1556 64.0131 34.0732 64.1585 33.9694 64.2808L28.5559 70.6909C28.1021 71.2292 27.8473 71.9588 27.8473 72.7194C27.8473 73.48 28.1021 74.2095 28.5559 74.7479L30.0178 76.4743C30.6361 77.3211 31.0061 78.3824 31.0723 79.4991V85.9677L31.7195 87.0225L32.378 85.8866V79.4765C32.3107 77.95 31.8028 76.4971 30.9391 75.3609L29.481 73.6344C29.274 73.3857 29.1581 73.0505 29.1581 72.7013C29.1581 72.3521 29.274 72.017 29.481 71.7682L34.8678 65.3582C35.3216 64.8198 35.5764 64.0903 35.5764 63.3297C35.5764 62.5691 35.3216 61.8395 34.8678 61.3012L29.4543 54.8911C29.3511 54.7686 29.2693 54.623 29.2138 54.4629C29.1582 54.3027 29.13 54.1312 29.1308 53.958C29.1293 53.7854 29.1571 53.6143 29.2127 53.4547C29.2683 53.2952 29.3505 53.1505 29.4543 53.0294L34.8678 46.6239C35.3216 46.0855 35.5764 45.356 35.5764 44.5954C35.5764 43.8348 35.3216 43.1052 34.8678 42.5669L29.4543 36.1568C29.2474 35.9081 29.1314 35.5729 29.1314 35.2237C29.1314 34.8745 29.2474 34.5394 29.4543 34.2906L35.9261 26.6274H54.8086C55.9192 26.6274 56.9843 26.105 57.7697 25.1751C58.555 24.2452 58.9962 22.9839 58.9962 21.6688V4.95404C58.9952 3.64129 58.5546 2.38259 57.771 1.45391C56.9875 0.525235 55.9248 0.00238627 54.8162 0ZM8.83212 25.0948H4.18385C3.42051 25.0924 2.68907 24.732 2.14966 24.0924C1.61024 23.4528 1.30679 22.5862 1.30578 21.6824V4.95404C1.30679 4.05016 1.61024 3.18359 2.14966 2.54403C2.68907 1.90447 3.42051 1.54403 4.18385 1.54165H8.83212V25.0948ZM48.8621 25.0948H10.1227V1.54165H48.8469L48.8621 25.0948ZM57.7095 21.6869C57.7085 22.5908 57.405 23.4573 56.8656 24.0969C56.3262 24.7365 55.5947 25.0969 54.8314 25.0993H50.1831V1.54165H54.8314C55.5947 1.54403 56.3262 1.90447 56.8656 2.54403C57.405 3.18359 57.7085 4.05016 57.7095 4.95404V21.6869Z" fill="#8E0D24"/>
</svg>
