<svg width="59" height="87" viewBox="0 0 59 87" fill="none" xmlns="http://www.w3.org/2000/svg">
<path d="M30.9007 58.9605C37.121 58.4311 44.6917 54.6502 45.5452 54.2157C56.6403 48.6418 60.9981 36.8896 58.1515 20.2528V19.9981L57.7599 17.8754L57.5742 17.0113C56.3277 11.3495 54.5094 5.82751 52.1471 0.529335L51.9011 0.00488281H7.18917L6.94317 0.529335C4.3049 6.42365 2.35269 12.5987 1.12452 18.9342L1.07935 19.129L0.617452 21.6563H0.647604L0.496967 22.81C-1.5112 38.0933 3.00718 48.9564 13.4948 54.2357C13.8262 54.4055 21.7082 58.4361 28.1494 58.9855L28.6515 59.0304V73.7793L28.1494 73.8093C24.186 74.0474 20.3412 75.2465 16.9504 77.3018C13.5595 79.3572 10.7254 82.2065 8.69529 85.6014L7.86195 86.9799H51.2584L50.4301 85.6014C48.4194 82.1886 45.5894 79.325 42.1934 77.2671C38.7975 75.2092 34.9416 74.0211 30.9709 73.8093L30.4689 73.7793V59.0055L30.9007 58.9605ZM3.39376 16.8015C4.55689 11.7822 6.15953 6.87381 8.18326 2.13256L8.32379 1.8229H29.5049H50.6861L50.8217 2.13256C53.1361 7.52444 54.8907 13.1375 56.058 18.8843L55.9927 19.2938L55.7417 19.4936C55.561 19.6285 55.3852 19.7683 55.2045 19.8882L54.7024 20.2178C54.1759 20.546 53.6273 20.838 53.0608 21.0919C50.3584 22.2742 47.4328 22.8668 44.4809 22.83C38.9584 22.83 33.2803 21.0169 27.7779 19.2639C23.1491 17.7655 18.3646 16.2671 13.786 15.9025C13.1384 15.8526 12.4907 15.8226 11.8481 15.8226C11.2055 15.8226 10.6031 15.8576 10.0007 15.9125L9.49861 15.9625C8.99657 16.0174 8.49448 16.0873 7.87696 16.2072L7.70629 16.2372C7.14537 16.3521 6.59076 16.4955 6.04456 16.6667L5.6429 16.8015C5.20612 16.9514 4.77942 17.1162 4.3577 17.301L4.10166 17.4009L3.14274 17.8354L3.39376 16.8015ZM47.2823 84.3428L47.9349 85.1819H11.075L11.7276 84.3428C13.8162 81.6245 16.5066 79.4218 19.5897 77.9056C22.6728 76.3895 26.0658 75.6008 29.505 75.6008C32.9442 75.6008 36.3371 76.3895 39.4203 77.9056C42.5034 79.4218 45.1937 81.6245 47.2823 84.3428ZM29.505 57.2074C23.2746 57.2074 14.3684 52.6324 14.2881 52.5875C1.23495 46.0346 0.768094 31.5205 2.65577 20.4975L2.69591 20.2678L2.89172 20.1479C3.19294 19.9581 3.50419 19.7883 3.81043 19.6185L4.05643 19.4836C4.28235 19.3637 4.50324 19.2389 4.7392 19.134C5.13079 18.9492 5.5425 18.8094 6.08972 18.6346L6.38089 18.5297C6.57166 18.4548 6.76748 18.3848 6.96327 18.3249C7.46532 18.18 7.99746 18.0852 8.57481 17.9803L8.85598 17.9253C9.02156 17.885 9.18914 17.8534 9.35802 17.8304C10.1903 17.7214 11.0288 17.6664 11.8682 17.6656C16.7431 17.6656 21.8488 19.2938 27.2658 21.0269C32.8837 22.82 38.6974 24.673 44.501 24.673C47.7108 24.7095 50.8913 24.0624 53.8289 22.775C54.5133 22.4724 55.1745 22.1202 55.807 21.7212L56.4897 21.2916L56.6102 22.0858C58.1164 32.5244 57.293 46.2943 44.7168 52.6174C44.6164 52.6424 35.7052 57.2074 29.505 57.2074Z" fill="#8E0D24"/>
</svg>
