<svg width="59" height="87" viewBox="0 0 59 87" fill="none" xmlns="http://www.w3.org/2000/svg">
<g clip-path="url(#clip0_126_4)">
<path d="M12.9192 9.1594C12.1298 9.15488 11.3415 9.22014 10.5636 9.35439L10.0519 9.46001L9.95033 9.97587C9.89754 10.2074 8.78878 15.8048 12.2938 20.1065C14.7712 23.1449 18.8773 24.6884 24.4983 24.7006H25.2903V23.8882C25.2537 10.5974 16.6151 9.1594 12.9192 9.1594ZM23.7022 23.1083L23.2027 23.084C18.7636 22.8687 15.5104 21.5363 13.5366 19.1276C11.319 16.4182 11.2337 12.998 11.384 11.2026L11.4124 10.8208L11.7942 10.7883C12.1069 10.7598 12.4887 10.7436 12.9192 10.7436C16.7166 10.7436 23.1621 12.2831 23.6779 22.6128L23.7022 23.1083Z" fill="#55514F"/>
<path d="M29.9365 0.284345L29.4979 0L29.0633 0.284345C28.8602 0.418391 24.1165 3.63143 23.556 9.11514C23.1499 13.0147 24.9735 17.0076 28.9415 20.9884L29.4979 21.5489L30.0583 20.9884C34.0304 17.0076 35.8377 13.0147 35.4438 9.11514C34.8833 3.61112 30.1355 0.418391 29.9365 0.284345ZM29.835 18.933L29.4979 19.3027L29.1648 18.933C26.1797 15.6387 24.8191 12.4013 25.1278 9.29793C25.473 5.81273 27.8327 3.33492 29.2095 2.16912L29.5019 1.92134L29.7943 2.16912C31.163 3.32273 33.5146 5.78024 33.8557 9.27356C34.1847 12.3851 32.8201 15.6346 29.835 18.933Z" fill="#55514F"/>
<path d="M46.7223 20.1067C50.2151 15.8172 49.1145 10.2076 49.0698 9.95168L48.9642 9.44393L48.4484 9.33832C47.6738 9.19991 46.8878 9.13463 46.1009 9.14335C42.3848 9.14335 33.7461 10.5772 33.7258 23.8925V24.6805H34.5178C40.1307 24.6886 44.2449 23.1329 46.7223 20.1067ZM35.8134 23.0841L35.3139 23.1085L35.3382 22.6089C35.854 12.2833 42.3035 10.7397 46.1009 10.7397C46.5071 10.7397 46.9132 10.7397 47.2219 10.7844L47.5996 10.8169L47.6321 11.1987C47.7823 12.9982 47.7011 16.4143 45.4795 19.1278C43.5057 21.5365 40.2525 22.8689 35.8134 23.0841Z" fill="#55514F"/>
<path d="M39.7611 48.8047C37.9859 48.8047 36.2505 49.3312 34.7745 50.3176C33.2984 51.304 32.148 52.706 31.4686 54.3464C30.7893 55.9867 30.6115 57.7917 30.9579 59.533C31.3042 61.2744 32.1591 62.874 33.4143 64.1294C34.6696 65.3849 36.2689 66.2399 38.01 66.5862C39.7511 66.9326 41.5559 66.7548 43.1959 66.0754C44.836 65.3959 46.2378 64.2454 47.2241 62.7691C48.2104 61.2928 48.7368 59.5572 48.7368 57.7817C48.7346 55.4015 47.7883 53.1194 46.1055 51.4364C44.4227 49.7533 42.141 48.8068 39.7611 48.8047ZM39.7611 65.1746C38.2982 65.1746 36.8681 64.7406 35.6518 63.9277C34.4355 63.1147 33.4875 61.9592 32.9279 60.6074C32.3682 59.2555 32.222 57.7681 32.5077 56.3331C32.7934 54.8981 33.4982 53.5801 34.5329 52.5458C35.5676 51.5115 36.8858 50.8073 38.3207 50.5224C39.7556 50.2374 41.2428 50.3845 42.5942 50.945C43.9455 51.5055 45.1003 52.4542 45.9125 53.6711C46.7246 54.8881 47.1577 56.3186 47.1569 57.7817C47.1548 59.7425 46.3747 61.6222 44.9881 63.0083C43.6015 64.3944 41.7216 65.1735 39.7611 65.1746Z" fill="#8E0D24"/>
<path d="M28.2105 57.7819C28.2113 56.006 27.6854 54.2699 26.6994 52.793C25.7135 51.3161 24.3117 50.1649 22.6715 49.4849C21.0312 48.805 19.2262 48.6268 17.4847 48.9731C15.7432 49.3193 14.1435 50.1744 12.888 51.4301C11.6324 52.6858 10.7775 54.2857 10.4313 56.0275C10.0851 57.7692 10.2632 59.5746 10.943 61.2151C11.6229 62.8556 12.774 64.2575 14.2506 65.2436C15.7273 66.2297 17.4632 66.7557 19.2388 66.7549C21.6172 66.7516 23.8973 65.8052 25.5791 64.1232C27.261 62.4411 28.2072 60.1607 28.2105 57.7819ZM19.2388 65.1747C17.7757 65.1755 16.3453 64.7423 15.1284 63.9298C13.9115 63.1173 12.963 61.9622 12.4027 60.6104C11.8424 59.2586 11.6956 57.771 11.9808 56.3358C12.2661 54.9005 12.9705 53.5821 14.0051 52.5474C15.0397 51.5127 16.3579 50.8081 17.7929 50.5229C19.2279 50.2376 20.7153 50.3844 22.0669 50.9447C23.4185 51.5051 24.5735 52.4538 25.3858 53.6709C26.1982 54.8879 26.6314 56.3186 26.6306 57.7819C26.6273 59.7416 25.8475 61.6201 24.462 63.0059C23.0765 64.3916 21.1982 65.1715 19.2388 65.1747Z" fill="#8E0D24"/>
<path d="M50.0243 28.873C48.2491 28.873 46.5137 29.3995 45.0377 30.3859C43.5616 31.3723 42.4112 32.7744 41.7318 34.4147C41.0525 36.0551 40.8747 37.86 41.2211 39.6014C41.5674 41.3428 42.4222 42.9423 43.6775 44.1978C44.9328 45.4532 46.5321 46.3082 48.2732 46.6546C50.0143 47.001 51.8191 46.8232 53.4592 46.1438C55.0992 45.4643 56.5011 44.3137 57.4873 42.8374C58.4736 41.3612 59 39.6256 59 37.8501C58.9968 35.4702 58.0501 33.1887 56.3675 31.5059C54.6849 29.8231 52.4038 28.8763 50.0243 28.873ZM50.0243 45.247C48.5615 45.247 47.1316 44.8131 45.9154 44.0004C44.6992 43.1876 43.7512 42.0324 43.1914 40.6807C42.6317 39.3291 42.4852 37.8419 42.7706 36.407C43.0559 34.9722 43.7603 33.6541 44.7947 32.6197C45.829 31.5852 47.1468 30.8807 48.5815 30.5953C50.0161 30.3099 51.5031 30.4564 52.8546 31.0162C54.206 31.5761 55.361 32.5241 56.1737 33.7406C56.9863 34.957 57.4201 36.3871 57.4201 37.8501C57.419 39.8115 56.6395 41.6923 55.2527 43.0793C53.866 44.4663 51.9854 45.2459 50.0243 45.247Z" fill="#8E0D24"/>
<path d="M29.4979 69.0342C27.7227 69.0342 25.9873 69.5607 24.5113 70.5471C23.0352 71.5335 21.8848 72.9355 21.2055 74.5758C20.5261 76.2162 20.3484 78.0212 20.6947 79.7625C21.041 81.5039 21.8959 83.1035 23.1511 84.3589C24.4064 85.6144 26.0057 86.4694 27.7468 86.8157C29.488 87.1621 31.2927 86.9844 32.9328 86.3049C34.5729 85.6255 35.9747 84.4748 36.9609 82.9986C37.9472 81.5223 38.4736 79.7867 38.4736 78.0112C38.4715 75.631 37.5251 73.3489 35.8423 71.6659C34.1595 69.9828 31.8778 69.0363 29.4979 69.0342ZM29.4979 85.4081C28.0343 85.4105 26.6029 84.9786 25.3849 84.1669C24.1668 83.3552 23.217 82.2003 22.6556 80.8485C22.0942 79.4966 21.9465 78.0085 22.2311 76.5726C22.5158 75.1368 23.22 73.8176 24.2547 72.7823C25.2893 71.7469 26.6079 71.0418 28.0434 70.7563C29.4789 70.4709 30.9668 70.6178 32.3188 71.1785C33.6708 71.7393 34.826 72.6886 35.6382 73.9064C36.4505 75.1241 36.8832 76.5555 36.8815 78.0193C36.8794 79.9783 36.1012 81.8567 34.7173 83.2431C33.3334 84.6294 31.4566 85.4109 29.4979 85.4162V85.4081Z" fill="#8E0D24"/>
<path d="M20.5264 37.8501C20.5264 39.6257 21.0529 41.3615 22.0393 42.8379C23.0258 44.3142 24.4278 45.4648 26.0682 46.1442C27.7085 46.8235 29.5134 47.001 31.2547 46.6543C32.9959 46.3076 34.5952 45.4522 35.8503 44.1964C37.1054 42.9405 37.9599 41.3405 38.3058 39.5989C38.6517 37.8573 38.4734 36.0522 37.7934 34.4119C37.1134 32.7716 35.9623 31.3699 34.4858 30.384C33.0092 29.3981 31.2734 28.8722 29.498 28.873C27.1189 28.8763 24.8382 29.8232 23.1562 31.5062C21.4743 33.1891 20.5285 35.4706 20.5264 37.8501ZM36.8938 37.8501C36.8922 39.3127 36.4571 40.742 35.6435 41.9574C34.8298 43.1727 33.6742 44.1195 32.3227 44.6781C30.9711 45.2367 29.4843 45.3821 28.0502 45.0958C26.6161 44.8094 25.299 44.1043 24.2655 43.0695C23.232 42.0347 22.5284 40.7167 22.2437 39.282C21.959 37.8474 22.1059 36.3605 22.6659 35.0094C23.226 33.6583 24.1739 32.5035 25.39 31.6911C26.606 30.8787 28.0356 30.445 29.498 30.445C31.4581 30.4504 33.3361 31.233 34.7203 32.6211C36.1044 34.0092 36.8817 35.8896 36.8816 37.8501H36.8938Z" fill="#8E0D24"/>
<path d="M17.9473 37.8501C17.9473 36.0744 17.4207 34.3387 16.4343 32.8623C15.4478 31.3859 14.0458 30.2353 12.4055 29.556C10.7651 28.8767 8.96021 28.6991 7.21899 29.0458C5.47776 29.3926 3.87845 30.248 2.62334 31.5038C1.36822 32.7597 0.5137 34.3596 0.167829 36.1012C-0.178041 37.8429 0.000267154 39.648 0.680239 41.2883C1.36021 42.9285 2.51128 44.3303 3.98786 45.3162C5.46444 46.3021 7.2002 46.8279 8.9756 46.8271C11.3547 46.8239 13.6355 45.8769 15.3174 44.194C16.9993 42.511 17.9451 40.2296 17.9473 37.8501ZM8.9756 45.247C7.51267 45.2478 6.08238 44.8147 4.86561 44.0024C3.64884 43.1901 2.70027 42.0351 2.13988 40.6836C1.57949 39.3321 1.43244 37.8446 1.71735 36.4095C2.00226 34.9744 2.70631 33.656 3.74047 32.6211C4.77463 31.5862 6.09245 30.8813 7.52721 30.5956C8.96197 30.3099 10.4492 30.4561 11.8009 31.0159C13.1525 31.5756 14.3078 32.5236 15.1207 33.7402C15.9335 34.9567 16.3674 36.3869 16.3674 37.8501C16.3652 39.8105 15.5859 41.6901 14.2002 43.0767C12.8146 44.4633 10.9357 45.2438 8.9756 45.247Z" fill="#8E0D24"/>
</g>
<defs>
<clipPath id="clip0_126_4">
<rect width="59" height="87" fill="white"/>
</clipPath>
</defs>
</svg>
