<svg aria-hidden="true" style="position: absolute; width: 0; height: 0; overflow: hidden;" version="1.1" xmlns="http://www.w3.org/2000/svg" xmlns:xlink="http://www.w3.org/1999/xlink">
<defs>
<symbol width='16' height="28" id="icon-facebook" viewBox="0 0 19 32">
<path d="M17.64 1.245c-1.484-0.157-2.976-0.234-4.468-0.23-4.948 0-8.023 3.151-8.023 8.224v3.444h-4.156c-0.195 0-0.382 0.077-0.52 0.215s-0.215 0.325-0.215 0.52v5.664c0 0.195 0.078 0.382 0.215 0.52s0.325 0.215 0.52 0.215h4.156v11.358c0 0.195 0.077 0.382 0.215 0.52s0.325 0.215 0.52 0.215h5.853c0.195 0 0.382-0.077 0.52-0.215s0.216-0.325 0.216-0.52v-11.358h4.143c0.179 0 0.351-0.065 0.485-0.183s0.221-0.28 0.244-0.457l0.731-5.664c0.014-0.104 0.005-0.209-0.026-0.31s-0.082-0.193-0.151-0.271c-0.069-0.079-0.154-0.142-0.25-0.185s-0.199-0.065-0.304-0.065h-4.874v-2.882c0-1.427 0.287-2.023 2.072-2.023h3c0.195 0 0.382-0.077 0.52-0.215s0.215-0.325 0.215-0.52v-5.069c0-0.179-0.065-0.351-0.183-0.485s-0.28-0.221-0.457-0.244zM16.809 6.306l-2.266 0.001c-3.174 0-3.541 1.995-3.541 3.494v3.619c0 0.195 0.077 0.382 0.215 0.52s0.324 0.216 0.519 0.216h4.776l-0.543 4.193h-4.231c-0.195 0-0.382 0.078-0.52 0.215s-0.215 0.325-0.215 0.52v11.355h-4.381v-11.355c0-0.195-0.077-0.382-0.215-0.52s-0.325-0.215-0.52-0.215h-4.155v-4.193h4.155c0.195 0 0.382-0.077 0.52-0.215s0.215-0.325 0.215-0.52v-4.181c0-4.228 2.45-6.753 6.552-6.753 1.484 0 2.825 0.081 3.637 0.152v3.668z"></path>
</symbol>
<symbol width='24' height="24" id="icon-instagram" viewBox="0 0 32 32">
<path d="M16 8.667c-1.45 0-2.868 0.43-4.074 1.236s-2.146 1.951-2.701 3.291c-0.555 1.34-0.7 2.814-0.417 4.237s0.981 2.729 2.007 3.755c1.026 1.026 2.332 1.724 3.755 2.007s2.897 0.138 4.237-0.417c1.34-0.555 2.485-1.495 3.291-2.701s1.236-2.624 1.236-4.074c0-1.945-0.773-3.81-2.148-5.185s-3.241-2.148-5.185-2.148zM16 22c-1.187 0-2.347-0.352-3.333-1.011s-1.756-1.596-2.21-2.693c-0.454-1.096-0.573-2.303-0.341-3.467s0.803-2.233 1.642-3.072c0.839-0.839 1.908-1.411 3.072-1.642s2.37-0.113 3.467 0.341c1.096 0.454 2.033 1.223 2.693 2.21s1.011 2.147 1.011 3.333c0 1.591-0.632 3.117-1.757 4.243s-2.651 1.757-4.243 1.757zM23.333 0h-14.667c-2.299 0-4.503 0.913-6.128 2.538s-2.538 3.83-2.538 6.128v14.667c0 1.138 0.224 2.265 0.66 3.317s1.074 2.007 1.879 2.812c1.625 1.625 3.83 2.538 6.128 2.538h14.667c1.138 0 2.265-0.224 3.317-0.66s2.007-1.074 2.812-1.879 1.443-1.76 1.879-2.812c0.436-1.051 0.66-2.178 0.66-3.317v-14.667c0-1.138-0.224-2.265-0.66-3.317s-1.074-2.007-1.879-2.812-1.76-1.443-2.812-1.879c-1.051-0.436-2.178-0.66-3.317-0.66zM30.667 23.333c0 1.945-0.773 3.81-2.148 5.185s-3.241 2.148-5.185 2.148h-14.667c-1.945 0-3.81-0.773-5.185-2.148s-2.148-3.241-2.148-5.185v-14.667c0-1.945 0.773-3.81 2.148-5.185s3.241-2.148 5.185-2.148h14.667c1.945 0 3.81 0.773 5.185 2.148s2.148 3.241 2.148 5.185v14.667zM26 7.333c0 0.264-0.078 0.521-0.225 0.741s-0.355 0.39-0.598 0.491c-0.244 0.101-0.512 0.127-0.77 0.076s-0.496-0.178-0.683-0.365c-0.187-0.186-0.313-0.424-0.365-0.683s-0.025-0.527 0.076-0.77c0.101-0.244 0.272-0.452 0.491-0.598s0.477-0.225 0.741-0.225c0.354 0 0.693 0.14 0.943 0.391s0.391 0.589 0.391 0.943z"></path>
</symbol>
<symbol width='26' height="24" id="icon-telegram" viewBox="0 0 35 32">
<path d="M32.736 1.728c-0.264-0.228-0.585-0.38-0.929-0.439s-0.697-0.024-1.023 0.103l-29.52 11.6c-0.384 0.153-0.708 0.425-0.925 0.776s-0.314 0.763-0.278 1.175c0.036 0.411 0.203 0.8 0.478 1.109s0.641 0.52 1.045 0.604l8.016 1.616v9.888c-0.005 0.381 0.106 0.754 0.317 1.071s0.514 0.563 0.867 0.705c0.239 0.095 0.494 0.144 0.752 0.144 0.25 0 0.497-0.049 0.728-0.145s0.44-0.237 0.616-0.415l4.576-4.576 6.752 5.936c0.346 0.313 0.797 0.485 1.264 0.48 0.201-0 0.401-0.033 0.592-0.096 0.314-0.103 0.597-0.285 0.822-0.529s0.382-0.541 0.459-0.863l6.016-26.272c0.079-0.339 0.062-0.694-0.048-1.024s-0.309-0.624-0.576-0.848zM1.328 14.832c-0.019-0.139 0.010-0.28 0.083-0.399s0.185-0.21 0.317-0.257l27.072-10.624-18.704 13.504-8.256-1.648c-0.137-0.025-0.263-0.095-0.356-0.2s-0.148-0.237-0.156-0.376zM11.968 28.608c-0.087 0.090-0.199 0.152-0.322 0.178s-0.25 0.014-0.366-0.034c-0.118-0.048-0.219-0.13-0.29-0.235s-0.109-0.23-0.11-0.357v-9.008l5.616 4.944-4.528 4.512zM32.112 3.328l-6.016 26.256c-0.024 0.109-0.077 0.209-0.153 0.291s-0.172 0.141-0.279 0.173c-0.103 0.037-0.215 0.045-0.322 0.022s-0.206-0.075-0.286-0.15l-13.792-12.128 20.752-14.992c0.052 0.076 0.088 0.163 0.104 0.254s0.014 0.184-0.008 0.274z"></path>
</symbol>
</defs>
</svg>
