<svg width="59" height="87" viewBox="0 0 59 87" fill="none" xmlns="http://www.w3.org/2000/svg">
<path d="M10.2558 84.58C10.3194 84.6764 11.8818 86.9996 13.7622 86.9996H36.6082C38.534 86.9996 40.1146 84.5648 40.16 84.4989L49.3757 66.8412L49.462 66.6332C50.2615 63.6775 50.521 60.5724 50.225 57.5025V57.2692L50.3795 57.1069C54.1266 53.13 57.0107 46.84 58.2916 39.8601C59.4952 33.3114 59.1999 26.8286 57.4695 21.5987C55.7662 16.4551 52.873 13.1782 49.3303 12.3717C48.7774 12.2436 48.2143 12.179 47.6497 12.1789C45.1925 12.1789 42.6264 13.3456 40.2373 15.5573L39.4879 16.2066V8.65856L6.00001 0.0351562C6.00001 0.0351562 5.82287 0.0351562 5.58669 0.0351562C4.56475 0.0351562 3.81079 0.420673 3.46561 1.12069C3.12042 1.82071 3.24304 2.90117 3.85621 4.02221L7.70324 7.87738C8.67418 8.66147 9.46682 9.68907 10.0174 10.8775C10.5681 12.066 10.8613 13.3822 10.8735 14.7203V23.7597C10.5279 25.1536 10.114 26.5253 9.63357 27.8685C9.25659 28.883 7.72142 32.9411 6.16353 37.0752L2.40279 47.0175C2.23474 47.4537 -1.68497 57.7612 0.894857 66.5419L10.2558 84.58ZM39.506 18.6363L39.6241 18.4892C42.1176 15.5319 44.9518 13.9239 47.6089 13.9239C48.0785 13.9235 48.5471 13.9745 49.0078 14.0761C55.5936 15.5979 59.0864 27.0163 56.7836 39.5608C55.7117 45.4247 53.5134 50.7205 50.5975 54.4691L49.9934 55.1489L49.8253 54.1597C49.7527 53.7133 49.6709 53.2872 49.5892 52.8763L49.5347 52.6126C49.4529 52.2068 49.3666 51.8111 49.2485 51.3241C49.1668 50.9741 49.085 50.6495 49.0033 50.335C49.0033 50.335 48.7807 49.5183 48.6989 49.2444L48.4083 48.2958L48.1948 47.6414L48.0494 47.2407L45.6013 40.763C43.8436 36.1114 41.6317 30.2577 40.8641 28.1982L40.6824 27.7163C40.2089 26.3947 39.8158 25.0389 39.506 23.6582V18.6363ZM7.93489 36.7252C9.35652 32.9664 10.6828 29.441 11.1143 28.325C11.5943 26.9577 12.0127 25.5644 12.3678 24.1503L12.4042 14.7457C12.3986 13.1765 12.072 11.6296 11.4494 10.223C10.8267 8.81633 9.92444 7.58723 8.81148 6.62952H8.7797L5.14613 3.03813C5.03634 2.83153 4.9436 2.6142 4.86907 2.38884L4.70102 1.85114L5.20517 1.74969C5.30509 1.74969 5.45043 1.70911 5.65936 1.69897H5.71841L38.0026 10.0282V23.7647L38.0299 24.0387L38.1253 24.4242C38.464 25.8103 38.8734 27.1737 39.3516 28.5076C39.6287 29.2584 42.6899 37.3644 42.6899 37.3644H7.69416L7.93489 36.7252ZM3.779 47.7124L7.03558 39.089H43.3304L46.5915 47.7124C46.5915 47.7124 46.755 48.1487 46.9866 48.8791C47.8288 51.5272 48.3972 54.2741 48.6808 57.0663C49.0201 60.0784 48.7927 63.1365 48.0131 66.0448L38.8929 83.5452C38.5658 84.0525 37.5303 85.28 36.6219 85.28H13.7758C12.9492 85.28 11.9318 84.1996 11.5367 83.6264L2.33012 65.9484C-0.0271586 57.7815 3.60641 48.0929 3.779 47.6871V47.7124Z" fill="#8E0D24"/>
</svg>
