<svg width="16" height="16" viewBox="0 0 16 16" fill="none" xmlns="http://www.w3.org/2000/svg">
<path fill-rule="evenodd" clip-rule="evenodd" d="M2.46154 1.23077C1.7818 1.23077 1.23077 1.7818 1.23077 2.46154V13.5385C1.23077 14.2182 1.7818 14.7692 2.46154 14.7692H13.5385C14.2182 14.7692 14.7692 14.2182 14.7692 13.5385V2.46154C14.7692 1.7818 14.2182 1.23077 13.5385 1.23077H2.46154ZM0 2.46154C0 1.10207 1.10207 0 2.46154 0H13.5385C14.8979 0 16 1.10207 16 2.46154V13.5385C16 14.8979 14.8979 16 13.5385 16H2.46154C1.10207 16 0 14.8979 0 13.5385V2.46154Z" fill="#252525"/>
</svg>
