<svg width="30" height="46" viewBox="0 0 30 46" fill="none" xmlns="http://www.w3.org/2000/svg">
<g clip-path="url(#clip0_134_1852)">
<path d="M6.56917 4.84289C6.16777 4.8405 5.76696 4.87501 5.3714 4.94599L5.11119 5.00183L5.05957 5.27458C5.03272 5.397 4.46895 8.35657 6.25114 10.631C7.51087 12.2375 9.5987 13.0536 12.4568 13.0601H12.8595V12.6305C12.8409 5.60319 8.44843 4.84289 6.56917 4.84289ZM12.0521 12.2182L11.7981 12.2053C9.54088 12.0915 7.88672 11.387 6.88307 10.1134C5.75552 8.68088 5.71214 6.8725 5.78855 5.9232L5.803 5.72132L5.99713 5.70413C6.15614 5.6891 6.35027 5.68051 6.56917 5.68051C8.50006 5.68051 11.7774 6.49449 12.0397 11.9562L12.0521 12.2182Z" fill="#55514F"/>
<path d="M15.2218 0.150343L14.9987 0L14.7778 0.150343C14.6745 0.221218 12.2625 1.92007 11.9775 4.8195C11.771 6.88132 12.6982 8.99253 14.7158 11.0973L14.9987 11.3937L15.2837 11.0973C17.3034 8.99253 18.2224 6.88132 18.0221 4.8195C17.7371 1.90933 15.323 0.221218 15.2218 0.150343ZM15.1701 10.0105L14.9987 10.206L14.8294 10.0105C13.3115 8.26874 12.6197 6.55701 12.7767 4.91615C12.9522 3.0734 14.152 1.76329 14.8521 1.14689L15.0008 1.01588L15.1495 1.14689C15.8454 1.75685 17.0411 3.05622 17.2146 4.90326C17.3819 6.54842 16.688 8.26659 15.1701 10.0105Z" fill="#55514F"/>
<path d="M23.7568 10.6311C25.5328 8.3631 24.9732 5.39709 24.9505 5.26179L24.8968 4.99332L24.6345 4.93748C24.2406 4.8643 23.841 4.82978 23.4409 4.83439C21.5513 4.83439 17.1588 5.59254 17.1484 12.6328V13.0494H17.5511C20.4051 13.0537 22.4971 12.2312 23.7568 10.6311ZM18.2099 12.2054L17.9559 12.2183L17.9683 11.9541C18.2306 6.49459 21.51 5.67845 23.4409 5.67845C23.6474 5.67845 23.8539 5.67844 24.0108 5.70207L24.2029 5.71925L24.2194 5.92114C24.2958 6.87258 24.2545 8.67883 23.1249 10.1135C22.1212 11.3871 20.4671 12.0916 18.2099 12.2054Z" fill="#55514F"/>
<path d="M20.2172 25.8047C19.3146 25.8047 18.4322 26.0831 17.6817 26.6046C16.9311 27.1262 16.3462 27.8675 16.0007 28.7348C15.6553 29.6021 15.5649 30.5564 15.741 31.4772C15.9171 32.3979 16.3518 33.2436 16.9901 33.9074C17.6283 34.5712 18.4415 35.0233 19.3269 35.2064C20.2122 35.3896 21.1298 35.2956 21.9638 34.9363C22.7977 34.5771 23.5105 33.9687 24.012 33.1882C24.5135 32.4076 24.7812 31.4899 24.7812 30.5512C24.7801 29.2927 24.2989 28.086 23.4432 27.1961C22.5875 26.3063 21.4273 25.8058 20.2172 25.8047ZM20.2172 34.46C19.4734 34.46 18.7462 34.2306 18.1278 33.8007C17.5093 33.3709 17.0273 32.76 16.7427 32.0452C16.4581 31.3304 16.3838 30.5439 16.5291 29.7852C16.6743 29.0265 17.0327 28.3296 17.5588 27.7827C18.085 27.2359 18.7552 26.8636 19.4848 26.7129C20.2145 26.5622 20.9707 26.64 21.6578 26.9363C22.3449 27.2327 22.9321 27.7343 23.345 28.3777C23.758 29.0212 23.9782 29.7775 23.9778 30.5512C23.9767 31.5879 23.5801 32.5818 22.875 33.3147C22.17 34.0475 21.2141 34.4595 20.2172 34.46Z" fill="#8E0D24"/>
<path d="M14.3446 30.5514C14.345 29.6124 14.0777 28.6944 13.5763 27.9136C13.075 27.1327 12.3622 26.524 11.5282 26.1645C10.6942 25.8049 9.77635 25.7108 8.89085 25.8938C8.00534 26.0769 7.19194 26.529 6.55354 27.193C5.91514 27.8569 5.48043 28.7028 5.30439 29.6237C5.12836 30.5447 5.21891 31.4992 5.5646 32.3666C5.91029 33.234 6.49558 33.9753 7.24643 34.4967C7.99728 35.018 8.87995 35.2961 9.78278 35.2957C10.9922 35.294 12.1515 34.7936 13.0067 33.9042C13.8618 33.0149 14.343 31.8091 14.3446 30.5514ZM9.78278 34.4602C9.03883 34.4606 8.31148 34.2316 7.69274 33.802C7.074 33.3724 6.59168 32.7616 6.30679 32.0469C6.0219 31.3322 5.94725 30.5456 6.09229 29.7867C6.23732 29.0279 6.59553 28.3308 7.12158 27.7837C7.64763 27.2366 8.3179 26.8641 9.04757 26.7133C9.77725 26.5624 10.5335 26.64 11.2208 26.9363C11.908 27.2326 12.4953 27.7342 12.9084 28.3777C13.3215 29.0212 13.5417 29.7777 13.5413 30.5514C13.5397 31.5875 13.1432 32.5808 12.4386 33.3135C11.7341 34.0461 10.7791 34.4585 9.78278 34.4602Z" fill="#8E0D24"/>
<path d="M25.436 15.2656C24.5333 15.2656 23.6509 15.544 22.9004 16.0655C22.1499 16.5871 21.5649 17.3284 21.2195 18.1957C20.874 19.063 20.7837 20.0174 20.9598 20.9381C21.1359 21.8588 21.5705 22.7046 22.2088 23.3684C22.8471 24.0322 23.6603 24.4842 24.5456 24.6674C25.4309 24.8505 26.3486 24.7565 27.1825 24.3973C28.0165 24.038 28.7293 23.4297 29.2307 22.6491C29.7322 21.8685 29.9999 20.9509 29.9999 20.0121C29.9983 18.7538 29.5169 17.5475 28.6614 16.6577C27.8058 15.7679 26.6459 15.2673 25.436 15.2656ZM25.436 23.9231C24.6922 23.9231 23.9651 23.6937 23.3467 23.264C22.7283 22.8342 22.2463 22.2234 21.9617 21.5088C21.677 20.7941 21.6026 20.0078 21.7477 19.2491C21.8928 18.4904 22.2509 17.7936 22.7769 17.2466C23.3028 16.6996 23.9729 16.3271 24.7023 16.1762C25.4318 16.0253 26.1879 16.1028 26.8751 16.3988C27.5623 16.6948 28.1496 17.1961 28.5628 17.8393C28.976 18.4824 29.1966 19.2386 29.1966 20.0121C29.196 21.0492 28.7996 22.0436 28.0945 22.777C27.3894 23.5103 26.4332 23.9225 25.436 23.9231Z" fill="#8E0D24"/>
<path d="M14.9985 36.501C14.0958 36.501 13.2134 36.7794 12.4629 37.3009C11.7124 37.8225 11.1274 38.5638 10.782 39.4311C10.4365 40.2984 10.3462 41.2527 10.5223 42.1734C10.6984 43.0942 11.133 43.9399 11.7713 44.6037C12.4096 45.2675 13.2228 45.7196 14.1081 45.9027C14.9934 46.0859 15.9111 45.9919 16.745 45.6326C17.579 45.2734 18.2918 44.665 18.7932 43.8845C19.2947 43.1039 19.5624 42.1862 19.5624 41.2474C19.5613 39.989 19.0801 38.7823 18.2245 37.8924C17.3688 37.0025 16.2086 36.5021 14.9985 36.501ZM14.9985 45.1585C14.2543 45.1597 13.5264 44.9313 12.9071 44.5022C12.2878 44.073 11.8048 43.4624 11.5193 42.7476C11.2339 42.0328 11.1588 41.246 11.3035 40.4868C11.4483 39.7276 11.8063 39.0302 12.3324 38.4827C12.8585 37.9353 13.529 37.5625 14.2589 37.4115C14.9888 37.2606 15.7454 37.3383 16.4328 37.6348C17.1203 37.9313 17.7077 38.4332 18.1207 39.0771C18.5337 39.7209 18.7537 40.4778 18.7529 41.2517C18.7518 42.2875 18.3561 43.2807 17.6524 44.0137C16.9487 44.7467 15.9944 45.1599 14.9985 45.1628V45.1585Z" fill="#8E0D24"/>
<path d="M10.4375 20.0121C10.4375 20.951 10.7052 21.8687 11.2068 22.6493C11.7084 23.4299 12.4213 24.0383 13.2554 24.3975C14.0894 24.7567 15.0072 24.8505 15.8926 24.6672C16.7779 24.4839 17.5911 24.0316 18.2293 23.3676C18.8675 22.7036 19.302 21.8576 19.4779 20.9368C19.6538 20.0159 19.5631 19.0615 19.2173 18.1942C18.8716 17.3269 18.2863 16.5858 17.5355 16.0645C16.7847 15.5432 15.9021 15.2652 14.9994 15.2656C13.7896 15.2673 12.6299 15.768 11.7747 16.6578C10.9195 17.5477 10.4386 18.754 10.4375 20.0121ZM18.7599 20.0121C18.7591 20.7854 18.5379 21.5412 18.1242 22.1838C17.7104 22.8264 17.1228 23.327 16.4356 23.6223C15.7484 23.9177 14.9924 23.9945 14.2632 23.8431C13.534 23.6918 12.8643 23.3189 12.3388 22.7718C11.8132 22.2247 11.4555 21.5278 11.3107 20.7692C11.166 20.0107 11.2407 19.2245 11.5254 18.5101C11.8102 17.7957 12.2922 17.1852 12.9105 16.7556C13.5288 16.3261 14.2558 16.0968 14.9994 16.0968C15.996 16.0996 16.9509 16.5134 17.6547 17.2474C18.3585 17.9813 18.7537 18.9755 18.7537 20.0121H18.7599Z" fill="#8E0D24"/>
<path d="M9.12588 20.0121C9.12588 19.0732 8.85816 18.1555 8.35658 17.3749C7.85499 16.5943 7.14208 15.9859 6.30802 15.6267C5.47395 15.2675 4.5562 15.1737 3.67083 15.357C2.78546 15.5403 1.97225 15.9926 1.33406 16.6566C0.695865 17.3206 0.261361 18.1666 0.0854943 19.0874C-0.0903721 20.0083 0.000293084 20.9627 0.346042 21.83C0.69179 22.6973 1.27708 23.4384 2.02788 23.9597C2.77869 24.481 3.66128 24.759 4.56402 24.7586C5.77375 24.7569 6.93344 24.2562 7.78865 23.3664C8.64387 22.4765 9.12478 21.2702 9.12588 20.0121ZM4.56402 23.9231C3.82016 23.9235 3.09289 23.6945 2.4742 23.265C1.8555 22.8355 1.37318 22.2249 1.08823 21.5103C0.803286 20.7957 0.728519 20.0092 0.873389 19.2504C1.01826 18.4916 1.37625 17.7945 1.90209 17.2474C2.42794 16.7002 3.09802 16.3275 3.82755 16.1764C4.55709 16.0253 5.31332 16.1027 6.00059 16.3986C6.68787 16.6946 7.27532 17.1958 7.68863 17.839C8.10193 18.4822 8.32254 19.2385 8.32254 20.0121C8.32145 21.0486 7.92518 22.0424 7.22062 22.7756C6.51606 23.5087 5.5607 23.9214 4.56402 23.9231Z" fill="#8E0D24"/>
</g>
<defs>
<clipPath id="clip0_134_1852">
<rect width="30" height="46" fill="white"/>
</clipPath>
</defs>
</svg>
