<svg width="24" height="24" viewBox="0 0 24 24" fill="none" xmlns="http://www.w3.org/2000/svg">
<path d="M12.0004 14.45L3.42539 23.025C3.10456 23.3458 2.69622 23.5062 2.20039 23.5062C1.70456 23.5062 1.29622 23.3458 0.97539 23.025C0.654557 22.7042 0.494141 22.2958 0.494141 21.8C0.494141 21.3042 0.654557 20.8958 0.97539 20.575L9.55039 12L0.97539 3.42499C0.654557 3.10416 0.494141 2.69583 0.494141 2.19999C0.494141 1.70416 0.654557 1.29583 0.97539 0.974993C1.29622 0.65416 1.70456 0.493744 2.20039 0.493744C2.69622 0.493744 3.10456 0.65416 3.42539 0.974993L12.0004 9.54999L20.5754 0.974993C20.8962 0.65416 21.3046 0.493744 21.8004 0.493744C22.2962 0.493744 22.7046 0.65416 23.0254 0.974993C23.3462 1.29583 23.5066 1.70416 23.5066 2.19999C23.5066 2.69583 23.3462 3.10416 23.0254 3.42499L14.4504 12L23.0254 20.575C23.3462 20.8958 23.5066 21.3042 23.5066 21.8C23.5066 22.2958 23.3462 22.7042 23.0254 23.025C22.7046 23.3458 22.2962 23.5062 21.8004 23.5062C21.3046 23.5062 20.8962 23.3458 20.5754 23.025L12.0004 14.45Z" fill="#252525"/>
</svg>
