<svg width="30" height="46" viewBox="0 0 30 46" fill="none" xmlns="http://www.w3.org/2000/svg">
<path d="M15.7128 31.1749C18.8757 30.895 22.7252 28.8959 23.1592 28.6661C28.8008 25.719 31.0165 19.5052 29.5691 10.7087V10.574L29.37 9.4517L29.2756 8.99485C28.6418 6.00126 27.7172 3.08156 26.516 0.280226L26.391 0.00292969H3.6561L3.53101 0.280226C2.18952 3.39676 1.19687 6.66173 0.572377 10.0115L0.549411 10.1145L0.314546 11.4508H0.329878L0.253283 12.0608C-0.76782 20.1416 1.52966 25.8854 6.86237 28.6767C7.03086 28.7665 11.0387 30.8976 14.3139 31.1881L14.5691 31.2118V39.0101L14.3139 39.026C12.2985 39.1519 10.3436 39.7858 8.61942 40.8726C6.89525 41.9593 5.45419 43.4659 4.42192 45.2609L3.99819 45.9897H26.0642L25.643 45.2609C24.6206 43.4564 23.1816 41.9423 21.4549 40.8542C19.7281 39.7661 17.7675 39.1379 15.7485 39.026L15.4932 39.0101V31.1986L15.7128 31.1749ZM1.72623 8.88392C2.31765 6.23002 3.13255 3.63477 4.16157 1.12791L4.23302 0.964183H15.0031H25.7732L25.8421 1.12791C27.019 3.97878 27.9111 6.94662 28.5047 9.98515L28.4715 10.2017L28.3438 10.3073C28.2519 10.3786 28.1626 10.4526 28.0707 10.5159L27.8154 10.6902C27.5476 10.8638 27.2687 11.0182 26.9806 11.1524C25.6065 11.7775 24.119 12.0908 22.618 12.0714C19.8099 12.0714 16.9228 11.1128 14.125 10.1858C11.7713 9.39359 9.33854 8.60136 7.01042 8.40858C6.68112 8.38217 6.35181 8.36634 6.02506 8.36634C5.69831 8.36634 5.392 8.38482 5.08567 8.41387L4.83039 8.44027C4.57511 8.46932 4.31981 8.50629 4.00582 8.56967L3.91904 8.58551C3.63383 8.64627 3.35182 8.72209 3.07409 8.81263L2.86986 8.88392C2.64777 8.96315 2.4308 9.05029 2.21637 9.148L2.08618 9.20082L1.59859 9.43057L1.72623 8.88392ZM24.0424 44.5954L24.3743 45.039H5.63193L5.9638 44.5954C7.0258 43.1581 8.39377 41.9935 9.96146 41.1918C11.5291 40.3902 13.2544 39.9732 15.0031 39.9732C16.7519 39.9732 18.4771 40.3902 20.0448 41.1918C21.6125 41.9935 22.9804 43.1581 24.0424 44.5954ZM15.0031 30.248C11.8351 30.248 7.30654 27.829 7.2657 27.8052C0.628531 24.3405 0.391144 16.6663 1.35098 10.8381L1.37139 10.7166L1.47095 10.6533C1.62412 10.5529 1.78238 10.4631 1.9381 10.3733L2.06318 10.302C2.17805 10.2386 2.29037 10.1726 2.41035 10.1172C2.60946 10.0195 2.81881 9.94553 3.09706 9.85311L3.24511 9.79764C3.34211 9.75803 3.44168 9.72105 3.54123 9.68936C3.79651 9.61278 4.06709 9.56262 4.36066 9.50716L4.50363 9.4781C4.58782 9.45681 4.67303 9.44006 4.7589 9.42793C5.18209 9.3703 5.60845 9.3412 6.03528 9.34079C8.51401 9.34079 11.1101 10.2017 13.8646 11.118C16.7211 12.0661 19.6772 13.0458 22.6282 13.0458C24.2603 13.0651 25.8775 12.723 27.3712 12.0423C27.7192 11.8823 28.0554 11.6961 28.377 11.4851L28.7242 11.258L28.7854 11.6779C29.5513 17.1971 29.1326 24.4778 22.738 27.8211C22.6869 27.8343 18.1558 30.248 15.0031 30.248Z" fill="#8E0D24"/>
</svg>
