<svg width="30" height="46" viewBox="0 0 30 46" fill="none" xmlns="http://www.w3.org/2000/svg">
<path d="M27.8726 0H2.12735C1.56263 0 1.02102 0.276215 0.621702 0.767891C0.222379 1.25957 -0.00195312 1.92643 -0.00195312 2.62176V11.4666C-0.00195312 12.162 0.222379 12.8288 0.621702 13.3205C1.02102 13.8122 1.56263 14.0884 2.12735 14.0884H17.3422L14.5199 17.5634C14.4058 17.7034 14.3154 17.8698 14.254 18.0531C14.1925 18.2364 14.1612 18.4329 14.1618 18.6312C14.161 19.033 14.2898 19.4188 14.5199 19.7037L17.2725 23.0906C17.3253 23.155 17.3671 23.2317 17.3957 23.3162C17.4242 23.4007 17.4389 23.4912 17.4389 23.5827C17.4389 23.6742 17.4242 23.7648 17.3957 23.8493C17.3671 23.9338 17.3253 24.0104 17.2725 24.0749L14.5199 27.4665C14.2892 27.7512 14.1596 28.1369 14.1596 28.5391C14.1596 28.9412 14.2892 29.327 14.5199 29.6116L17.2725 33.0008C17.3253 33.0655 17.3672 33.1424 17.3958 33.227C17.4244 33.3117 17.4391 33.4025 17.4391 33.4942C17.4391 33.5859 17.4244 33.6767 17.3958 33.7613C17.3672 33.846 17.3253 33.9229 17.2725 33.9876L14.5199 37.3768C14.2892 37.6614 14.1596 38.0472 14.1596 38.4493C14.1596 38.8515 14.2892 39.2372 14.5199 39.5219L15.2632 40.4347C15.5776 40.8824 15.7658 41.4436 15.7994 42.034V45.4542L16.1285 46.0119L16.4634 45.4113V42.0221C16.4292 41.2149 16.1709 40.4467 15.7317 39.846L14.9903 38.9332C14.8851 38.8016 14.8261 38.6244 14.8261 38.4398C14.8261 38.2552 14.8851 38.078 14.9903 37.9464L17.7294 34.5572C17.9601 34.2726 18.0897 33.8868 18.0897 33.4847C18.0897 33.0825 17.9601 32.6968 17.7294 32.4121L14.9768 29.0229C14.9242 28.9581 14.8827 28.8811 14.8544 28.7965C14.8262 28.7118 14.8118 28.6211 14.8122 28.5295C14.8115 28.4383 14.8256 28.3478 14.8539 28.2634C14.8821 28.1791 14.9239 28.1026 14.9768 28.0386L17.7294 24.6517C17.9601 24.3671 18.0897 23.9813 18.0897 23.5792C18.0897 23.177 17.9601 22.7913 17.7294 22.5066L14.9768 19.1174C14.8715 18.9859 14.8126 18.8087 14.8126 18.624C14.8126 18.4394 14.8715 18.2622 14.9768 18.1307L18.2675 14.0789H27.8687C28.4335 14.0789 28.9751 13.8026 29.3744 13.311C29.7737 12.8193 29.998 12.1524 29.998 11.4571V2.61938C29.9975 1.92528 29.7735 1.25976 29.3751 0.768734C28.9766 0.277711 28.4363 0.00126171 27.8726 0ZM4.49088 13.2685H2.12735C1.73921 13.2672 1.36729 13.0767 1.09302 12.7385C0.81874 12.4003 0.664439 11.9422 0.663928 11.4642V2.61938C0.664439 2.14146 0.81874 1.68328 1.09302 1.34512C1.36729 1.00696 1.73921 0.816386 2.12735 0.815125H4.49088V13.2685ZM24.8451 13.2685H5.14709V0.815125H24.8374L24.8451 13.2685ZM29.3438 11.4666C29.3433 11.9445 29.189 12.4027 28.9147 12.7409C28.6404 13.079 28.2685 13.2696 27.8803 13.2709H25.5168V0.815125H27.8803C28.2685 0.816386 28.6404 1.00696 28.9147 1.34512C29.189 1.68328 29.3433 2.14146 29.3438 2.61938V11.4666Z" fill="#8E0D24"/>
</svg>
