<svg width="30" height="46" viewBox="0 0 30 46" fill="none" xmlns="http://www.w3.org/2000/svg">
<path d="M5.21529 44.7204C5.24762 44.7714 6.04207 45.9998 6.99819 45.9998H18.6148C19.594 45.9998 20.3977 44.7124 20.4208 44.6775L25.1067 35.3413L25.1506 35.2313C25.5571 33.6685 25.6891 32.0268 25.5386 30.4036V30.2802L25.6171 30.1944C27.5224 28.0917 28.989 24.7659 29.6402 21.0754C30.2522 17.6129 30.1021 14.1852 29.2222 11.42C28.3562 8.70038 26.885 6.96777 25.0836 6.54132C24.8025 6.47359 24.5162 6.43944 24.2291 6.4394C22.9797 6.4394 21.6749 7.05628 20.4601 8.22566L20.079 8.56896V4.57806L3.05131 0.0185547C3.05131 0.0185547 2.96124 0.0185547 2.84115 0.0185547C2.32152 0.0185547 1.93815 0.222391 1.76263 0.592515C1.58711 0.962639 1.64946 1.53392 1.96124 2.12665L3.91736 4.16502C4.41105 4.57959 4.8141 5.12292 5.09407 5.75131C5.37404 6.37971 5.52314 7.07563 5.52937 7.78312V12.5625C5.35363 13.2996 5.14314 14.0248 4.89888 14.735C4.7072 15.2714 3.9266 17.4171 3.13445 19.603L1.22221 24.8598C1.13676 25.0904 -0.856311 30.5404 0.455467 35.183L5.21529 44.7204ZM20.0883 9.85367L20.1483 9.77589C21.4162 8.21224 22.8573 7.36203 24.2084 7.36203C24.4472 7.36183 24.6854 7.38878 24.9197 7.4425C28.2684 8.24711 30.0444 14.2844 28.8735 20.9172C28.3285 24.0176 27.2107 26.8177 25.728 28.7997L25.4208 29.1591L25.3354 28.6361C25.2984 28.4001 25.2569 28.1748 25.2153 27.9576L25.1876 27.8181C25.146 27.6035 25.1021 27.3943 25.0421 27.1369C25.0005 26.9518 24.9589 26.7801 24.9174 26.6139C24.9174 26.6139 24.8042 26.182 24.7626 26.0372L24.6148 25.5357L24.5063 25.1897L24.4324 24.9778L23.1876 21.5528C22.2938 19.0934 21.1691 15.9983 20.7788 14.9093L20.6864 14.6546C20.4456 13.9558 20.2458 13.239 20.0883 12.5089V9.85367ZM4.03514 19.4179C4.75801 17.4305 5.43237 15.5665 5.65177 14.9764C5.89588 14.2535 6.10862 13.5168 6.28919 12.7691L6.30766 7.79653C6.30483 6.96687 6.13877 6.14894 5.82216 5.40521C5.50556 4.66147 5.04678 4.0116 4.48087 3.50523H4.46471L2.61713 1.60633C2.56131 1.4971 2.51415 1.38219 2.47625 1.26303L2.3908 0.97873L2.64715 0.92509C2.69796 0.92509 2.77186 0.903634 2.8781 0.89827H2.90812L19.3238 5.30221V12.5652L19.3377 12.7101L19.3862 12.9139C19.5584 13.6468 19.7666 14.3677 20.0097 15.073C20.1506 15.4699 21.7072 19.7558 21.7072 19.7558H3.91274L4.03514 19.4179ZM1.92198 25.2272L3.57787 20.6677H22.0328L23.691 25.2272C23.691 25.2272 23.7742 25.4579 23.892 25.8441C24.3202 27.2442 24.6092 28.6966 24.7534 30.1729C24.9259 31.7656 24.8103 33.3825 24.4139 34.9202L19.7765 44.1733C19.6102 44.4415 19.0836 45.0906 18.6217 45.0906H7.00513C6.5848 45.0906 6.06748 44.5193 5.86655 44.2162L1.18526 34.8692C-0.0133543 30.5511 1.83422 25.4284 1.92198 25.2138V25.2272Z" fill="#8E0D24"/>
</svg>
