<!-- Generated by IcoMoon.io -->
<svg version="1.1" xmlns="http://www.w3.org/2000/svg" width="19" height="32" viewBox="0 0 19 32">
<title>facebook-icon</title>
<path d="M17.64 1.245c-1.484-0.157-2.976-0.234-4.468-0.23-4.948 0-8.023 3.151-8.023 8.224v3.444h-4.156c-0.195 0-0.382 0.077-0.52 0.215s-0.215 0.325-0.215 0.52v5.664c0 0.195 0.078 0.382 0.215 0.52s0.325 0.215 0.52 0.215h4.156v11.358c0 0.195 0.077 0.382 0.215 0.52s0.325 0.215 0.52 0.215h5.853c0.195 0 0.382-0.077 0.52-0.215s0.216-0.325 0.216-0.52v-11.358h4.143c0.179 0 0.351-0.065 0.485-0.183s0.221-0.28 0.244-0.457l0.731-5.664c0.014-0.104 0.005-0.209-0.026-0.31s-0.082-0.193-0.151-0.271c-0.069-0.079-0.154-0.142-0.25-0.185s-0.199-0.065-0.304-0.065h-4.874v-2.882c0-1.427 0.287-2.023 2.072-2.023h3c0.195 0 0.382-0.077 0.52-0.215s0.215-0.325 0.215-0.52v-5.069c0-0.179-0.065-0.351-0.183-0.485s-0.28-0.221-0.457-0.244zM16.809 6.306l-2.266 0.001c-3.174 0-3.541 1.995-3.541 3.494v3.619c0 0.195 0.077 0.382 0.215 0.52s0.324 0.216 0.519 0.216h4.776l-0.543 4.193h-4.231c-0.195 0-0.382 0.078-0.52 0.215s-0.215 0.325-0.215 0.52v11.355h-4.381v-11.355c0-0.195-0.077-0.382-0.215-0.52s-0.325-0.215-0.52-0.215h-4.155v-4.193h4.155c0.195 0 0.382-0.077 0.52-0.215s0.215-0.325 0.215-0.52v-4.181c0-4.228 2.45-6.753 6.552-6.753 1.484 0 2.825 0.081 3.637 0.152v3.668z"></path>
</svg>
