<!-- Generated by IcoMoon.io -->
<svg version="1.1" xmlns="http://www.w3.org/2000/svg" width="32" height="32" viewBox="0 0 32 32">
<title>instagram-icon</title>
<path d="M16 8.667c-1.45 0-2.868 0.43-4.074 1.236s-2.146 1.951-2.701 3.291c-0.555 1.34-0.7 2.814-0.417 4.237s0.981 2.729 2.007 3.755c1.026 1.026 2.332 1.724 3.755 2.007s2.897 0.138 4.237-0.417c1.34-0.555 2.485-1.495 3.291-2.701s1.236-2.624 1.236-4.074c0-1.945-0.773-3.81-2.148-5.185s-3.241-2.148-5.185-2.148zM16 22c-1.187 0-2.347-0.352-3.333-1.011s-1.756-1.596-2.21-2.693c-0.454-1.096-0.573-2.303-0.341-3.467s0.803-2.233 1.642-3.072c0.839-0.839 1.908-1.411 3.072-1.642s2.37-0.113 3.467 0.341c1.096 0.454 2.033 1.223 2.693 2.21s1.011 2.147 1.011 3.333c0 1.591-0.632 3.117-1.757 4.243s-2.651 1.757-4.243 1.757zM23.333 0h-14.667c-2.299 0-4.503 0.913-6.128 2.538s-2.538 3.83-2.538 6.128v14.667c0 1.138 0.224 2.265 0.66 3.317s1.074 2.007 1.879 2.812c1.625 1.625 3.83 2.538 6.128 2.538h14.667c1.138 0 2.265-0.224 3.317-0.66s2.007-1.074 2.812-1.879 1.443-1.76 1.879-2.812c0.436-1.051 0.66-2.178 0.66-3.317v-14.667c0-1.138-0.224-2.265-0.66-3.317s-1.074-2.007-1.879-2.812-1.76-1.443-2.812-1.879c-1.051-0.436-2.178-0.66-3.317-0.66zM30.667 23.333c0 1.945-0.773 3.81-2.148 5.185s-3.241 2.148-5.185 2.148h-14.667c-1.945 0-3.81-0.773-5.185-2.148s-2.148-3.241-2.148-5.185v-14.667c0-1.945 0.773-3.81 2.148-5.185s3.241-2.148 5.185-2.148h14.667c1.945 0 3.81 0.773 5.185 2.148s2.148 3.241 2.148 5.185v14.667zM26 7.333c0 0.264-0.078 0.521-0.225 0.741s-0.355 0.39-0.598 0.491c-0.244 0.101-0.512 0.127-0.77 0.076s-0.496-0.178-0.683-0.365c-0.187-0.186-0.313-0.424-0.365-0.683s-0.025-0.527 0.076-0.77c0.101-0.244 0.272-0.452 0.491-0.598s0.477-0.225 0.741-0.225c0.354 0 0.693 0.14 0.943 0.391s0.391 0.589 0.391 0.943z"></path>
</svg>
