<!-- Generated by IcoMoon.io -->
<svg version="1.1" xmlns="http://www.w3.org/2000/svg" width="35" height="32" viewBox="0 0 35 32">
<title>telegram-icon</title>
<path d="M32.736 1.728c-0.264-0.228-0.585-0.38-0.929-0.439s-0.697-0.024-1.023 0.103l-29.52 11.6c-0.384 0.153-0.708 0.425-0.925 0.776s-0.314 0.763-0.278 1.175c0.036 0.411 0.203 0.8 0.478 1.109s0.641 0.52 1.045 0.604l8.016 1.616v9.888c-0.005 0.381 0.106 0.754 0.317 1.071s0.514 0.563 0.867 0.705c0.239 0.095 0.494 0.144 0.752 0.144 0.25 0 0.497-0.049 0.728-0.145s0.44-0.237 0.616-0.415l4.576-4.576 6.752 5.936c0.346 0.313 0.797 0.485 1.264 0.48 0.201-0 0.401-0.033 0.592-0.096 0.314-0.103 0.597-0.285 0.822-0.529s0.382-0.541 0.459-0.863l6.016-26.272c0.079-0.339 0.062-0.694-0.048-1.024s-0.309-0.624-0.576-0.848zM1.328 14.832c-0.019-0.139 0.010-0.28 0.083-0.399s0.185-0.21 0.317-0.257l27.072-10.624-18.704 13.504-8.256-1.648c-0.137-0.025-0.263-0.095-0.356-0.2s-0.148-0.237-0.156-0.376zM11.968 28.608c-0.087 0.090-0.199 0.152-0.322 0.178s-0.25 0.014-0.366-0.034c-0.118-0.048-0.219-0.13-0.29-0.235s-0.109-0.23-0.11-0.357v-9.008l5.616 4.944-4.528 4.512zM32.112 3.328l-6.016 26.256c-0.024 0.109-0.077 0.209-0.153 0.291s-0.172 0.141-0.279 0.173c-0.103 0.037-0.215 0.045-0.322 0.022s-0.206-0.075-0.286-0.15l-13.792-12.128 20.752-14.992c0.052 0.076 0.088 0.163 0.104 0.254s0.014 0.184-0.008 0.274z"></path>
</svg>
