<svg width="24" height="24" viewBox="0 0 24 24" fill="none" xmlns="http://www.w3.org/2000/svg">
<path d="M11.9999 14.45L3.4249 23.025C3.10407 23.3458 2.69574 23.5063 2.1999 23.5063C1.70407 23.5063 1.29574 23.3458 0.974902 23.025C0.654068 22.7042 0.493652 22.2958 0.493652 21.8C0.493652 21.3042 0.654068 20.8958 0.974902 20.575L9.5499 12L0.974902 3.425C0.654068 3.10417 0.493652 2.69583 0.493652 2.2C0.493652 1.70417 0.654068 1.29583 0.974902 0.975001C1.29574 0.654168 1.70407 0.493752 2.1999 0.493752C2.69574 0.493752 3.10407 0.654168 3.4249 0.975001L11.9999 9.55L20.5749 0.975001C20.8957 0.654168 21.3041 0.493752 21.7999 0.493752C22.2957 0.493752 22.7041 0.654168 23.0249 0.975001C23.3457 1.29583 23.5062 1.70417 23.5062 2.2C23.5062 2.69583 23.3457 3.10417 23.0249 3.425L14.4499 12L23.0249 20.575C23.3457 20.8958 23.5062 21.3042 23.5062 21.8C23.5062 22.2958 23.3457 22.7042 23.0249 23.025C22.7041 23.3458 22.2957 23.5063 21.7999 23.5063C21.3041 23.5063 20.8957 23.3458 20.5749 23.025L11.9999 14.45Z" fill="#252525"/>
</svg>
