<svg width="24" height="24" viewBox="0 0 24 24" fill="none" xmlns="http://www.w3.org/2000/svg">
<path d="M12 6.5C10.9122 6.5 9.84883 6.82257 8.94436 7.42692C8.03989 8.03127 7.33495 8.89025 6.91866 9.89524C6.50238 10.9002 6.39346 12.0061 6.60568 13.073C6.8179 14.1399 7.34172 15.1199 8.11091 15.8891C8.8801 16.6583 9.86011 17.1821 10.927 17.3943C11.9939 17.6065 13.0998 17.4976 14.1048 17.0813C15.1098 16.6651 15.9687 15.9601 16.5731 15.0556C17.1774 14.1512 17.5 13.0878 17.5 12C17.5 10.5413 16.9205 9.14236 15.8891 8.11091C14.8576 7.07946 13.4587 6.5 12 6.5ZM12 16.5C11.11 16.5 10.24 16.2361 9.49993 15.7416C8.75991 15.2471 8.18314 14.5443 7.84254 13.7221C7.50195 12.8998 7.41283 11.995 7.58647 11.1221C7.7601 10.2492 8.18868 9.44736 8.81802 8.81802C9.44736 8.18868 10.2492 7.7601 11.1221 7.58647C11.995 7.41283 12.8998 7.50195 13.7221 7.84254C14.5443 8.18314 15.2471 8.75991 15.7416 9.49993C16.2361 10.24 16.5 11.11 16.5 12C16.5 13.1935 16.0259 14.3381 15.182 15.182C14.3381 16.0259 13.1935 16.5 12 16.5ZM17.5 0H6.5C4.77609 0 3.12279 0.684819 1.90381 1.90381C0.684819 3.12279 0 4.77609 0 6.5V17.5C0 18.3536 0.168127 19.1988 0.494783 19.9874C0.821438 20.7761 1.30022 21.4926 1.90381 22.0962C3.12279 23.3152 4.77609 24 6.5 24H17.5C18.3536 24 19.1988 23.8319 19.9874 23.5052C20.7761 23.1786 21.4926 22.6998 22.0962 22.0962C22.6998 21.4926 23.1786 20.7761 23.5052 19.9874C23.8319 19.1988 24 18.3536 24 17.5V6.5C24 5.64641 23.8319 4.80117 23.5052 4.01256C23.1786 3.22394 22.6998 2.50739 22.0962 1.90381C21.4926 1.30022 20.7761 0.821438 19.9874 0.494783C19.1988 0.168127 18.3536 0 17.5 0ZM23 17.5C23 18.9587 22.4205 20.3576 21.3891 21.3891C20.3576 22.4205 18.9587 23 17.5 23H6.5C5.04131 23 3.64236 22.4205 2.61091 21.3891C1.57946 20.3576 1 18.9587 1 17.5V6.5C1 5.04131 1.57946 3.64236 2.61091 2.61091C3.64236 1.57946 5.04131 1 6.5 1H17.5C18.9587 1 20.3576 1.57946 21.3891 2.61091C22.4205 3.64236 23 5.04131 23 6.5V17.5ZM19.5 5.5C19.5 5.69778 19.4414 5.89112 19.3315 6.05557C19.2216 6.22002 19.0654 6.34819 18.8827 6.42388C18.7 6.49957 18.4989 6.51937 18.3049 6.48079C18.1109 6.4422 17.9327 6.34696 17.7929 6.20711C17.653 6.06725 17.5578 5.88907 17.5192 5.69509C17.4806 5.50111 17.5004 5.30004 17.5761 5.11732C17.6518 4.93459 17.78 4.77841 17.9444 4.66853C18.1089 4.55865 18.3022 4.5 18.5 4.5C18.7652 4.5 19.0196 4.60536 19.2071 4.79289C19.3946 4.98043 19.5 5.23478 19.5 5.5Z" fill="black"/>
</svg>
