<svg width="27" height="25" viewBox="0 0 27 25" fill="none" xmlns="http://www.w3.org/2000/svg">
<path d="M25.575 1.35017C25.3686 1.17195 25.1176 1.05334 24.8489 1.00709C24.5802 0.960841 24.304 0.988699 24.05 1.08767L0.987469 10.1502C0.687755 10.2694 0.434466 10.4821 0.265176 10.7567C0.095887 11.0312 0.0196171 11.3531 0.0476818 11.6744C0.0757466 11.9958 0.206651 12.2995 0.420974 12.5406C0.635297 12.7816 0.921622 12.9472 1.23747 13.0127L7.49997 14.2752V22.0002C7.49617 22.2978 7.58249 22.5896 7.74757 22.8372C7.91266 23.0848 8.1488 23.2767 8.42497 23.3877C8.61191 23.4621 8.81128 23.5002 9.01247 23.5002C9.20773 23.5004 9.4011 23.4618 9.58134 23.3867C9.76158 23.3116 9.92512 23.2015 10.0625 23.0627L13.6375 19.4877L18.9125 24.1252C19.1828 24.3699 19.5354 24.5038 19.9 24.5002C20.0571 24.4998 20.2132 24.4744 20.3625 24.4252C20.6082 24.3445 20.8292 24.2022 21.0043 24.0118C21.1794 23.8214 21.3027 23.5893 21.3625 23.3377L26.0625 2.81267C26.124 2.54765 26.111 2.27077 26.025 2.01266C25.939 1.75455 25.7832 1.52527 25.575 1.35017ZM1.03747 11.5877C1.0226 11.4793 1.04557 11.3692 1.10251 11.2758C1.15944 11.1824 1.24685 11.1116 1.34997 11.0752L22.5 2.77517L7.88747 13.3252L1.43747 12.0377C1.33004 12.0183 1.23223 11.9634 1.1597 11.8818C1.08717 11.8002 1.04413 11.6966 1.03747 11.5877ZM9.34997 22.3502C9.28205 22.4208 9.19444 22.4692 9.09857 22.4893C9.00269 22.5094 8.90299 22.5001 8.81247 22.4627C8.7203 22.4254 8.64134 22.3615 8.58567 22.2791C8.53001 22.1967 8.50017 22.0996 8.49997 22.0002V14.9627L12.8875 18.8252L9.34997 22.3502ZM25.0875 2.60017L20.3875 23.1127C20.3687 23.1977 20.3275 23.2762 20.2682 23.34C20.2088 23.4037 20.1335 23.4504 20.05 23.4752C19.9693 23.5042 19.8822 23.5102 19.7983 23.4925C19.7144 23.4748 19.6371 23.4342 19.575 23.3752L8.79997 13.9002L25.0125 2.18767C25.0533 2.24726 25.0812 2.31481 25.0941 2.3859C25.107 2.45699 25.1048 2.53001 25.0875 2.60017Z" fill="black"/>
</svg>
